<mxfile host="Electron" modified="2023-12-03T01:58:52.888Z" agent="Mozilla/5.0 (Windows NT 10.0; Win64; x64) AppleWebKit/537.36 (KHTML, like Gecko) draw.io/22.1.2 Chrome/114.0.5735.289 Electron/25.9.4 Safari/537.36" etag="ZZ5s3nR4rqKVEm411WlN" version="22.1.2" type="device">
  <diagram name="Page-1" id="btk4dhSdIgPT5likEBNf">
    <mxGraphModel dx="1498" dy="1090" grid="0" gridSize="10" guides="1" tooltips="1" connect="1" arrows="1" fold="1" page="0" pageScale="1" pageWidth="850" pageHeight="1100" math="0" shadow="0">
      <root>
        <mxCell id="0" />
        <mxCell id="1" parent="0" />
        <mxCell id="yaAyxSlWEsneB4Hl2WkM-1" value="Produtos" style="shape=table;startSize=30;container=1;collapsible=1;childLayout=tableLayout;fixedRows=1;rowLines=0;fontStyle=1;align=center;resizeLast=1;html=1;fontSize=16;shadow=0;" parent="1" vertex="1">
          <mxGeometry x="-397" y="-59" width="365" height="150.35" as="geometry" />
        </mxCell>
        <mxCell id="yaAyxSlWEsneB4Hl2WkM-2" value="" style="shape=tableRow;horizontal=0;startSize=0;swimlaneHead=0;swimlaneBody=0;fillColor=none;collapsible=0;dropTarget=0;points=[[0,0.5],[1,0.5]];portConstraint=eastwest;top=0;left=0;right=0;bottom=1;fontSize=16;shadow=0;" parent="yaAyxSlWEsneB4Hl2WkM-1" vertex="1">
          <mxGeometry y="30" width="365" height="30" as="geometry" />
        </mxCell>
        <mxCell id="yaAyxSlWEsneB4Hl2WkM-3" value="PK" style="shape=partialRectangle;connectable=0;fillColor=none;top=0;left=0;bottom=0;right=0;fontStyle=1;overflow=hidden;whiteSpace=wrap;html=1;fontSize=16;shadow=0;" parent="yaAyxSlWEsneB4Hl2WkM-2" vertex="1">
          <mxGeometry width="30" height="30" as="geometry">
            <mxRectangle width="30" height="30" as="alternateBounds" />
          </mxGeometry>
        </mxCell>
        <mxCell id="yaAyxSlWEsneB4Hl2WkM-4" value="ID" style="shape=partialRectangle;connectable=0;fillColor=none;top=0;left=0;bottom=0;right=0;align=left;spacingLeft=6;fontStyle=5;overflow=hidden;whiteSpace=wrap;html=1;fontSize=16;shadow=0;snapToPoint=0;fixDash=0;metaEdit=0;backgroundOutline=0;enumerate=0;comic=0;deletable=0;" parent="yaAyxSlWEsneB4Hl2WkM-2" vertex="1">
          <mxGeometry x="30" width="173.35294117647092" height="30" as="geometry">
            <mxRectangle width="173.35294117647092" height="30" as="alternateBounds" />
          </mxGeometry>
        </mxCell>
        <mxCell id="yaAyxSlWEsneB4Hl2WkM-152" value="INT IDENTITY" style="shape=partialRectangle;connectable=0;fillColor=none;top=0;left=0;bottom=0;right=0;align=left;spacingLeft=6;fontStyle=5;overflow=hidden;whiteSpace=wrap;html=1;fontSize=16;shadow=0;snapToPoint=0;fixDash=0;metaEdit=0;backgroundOutline=0;enumerate=0;comic=0;deletable=0;" parent="yaAyxSlWEsneB4Hl2WkM-2" vertex="1">
          <mxGeometry x="203.35294117647092" width="161.64705882352908" height="30" as="geometry">
            <mxRectangle width="161.64705882352908" height="30" as="alternateBounds" />
          </mxGeometry>
        </mxCell>
        <mxCell id="yaAyxSlWEsneB4Hl2WkM-5" value="" style="shape=tableRow;horizontal=0;startSize=0;swimlaneHead=0;swimlaneBody=0;fillColor=none;collapsible=0;dropTarget=0;points=[[0,0.5],[1,0.5]];portConstraint=eastwest;top=0;left=0;right=0;bottom=0;fontSize=16;shadow=0;" parent="yaAyxSlWEsneB4Hl2WkM-1" vertex="1">
          <mxGeometry y="60" width="365" height="30" as="geometry" />
        </mxCell>
        <mxCell id="yaAyxSlWEsneB4Hl2WkM-6" value="" style="shape=partialRectangle;connectable=0;fillColor=none;top=0;left=0;bottom=0;right=0;editable=1;overflow=hidden;whiteSpace=wrap;html=1;fontSize=16;shadow=0;" parent="yaAyxSlWEsneB4Hl2WkM-5" vertex="1">
          <mxGeometry width="30" height="30" as="geometry">
            <mxRectangle width="30" height="30" as="alternateBounds" />
          </mxGeometry>
        </mxCell>
        <mxCell id="yaAyxSlWEsneB4Hl2WkM-7" value="Nome" style="shape=partialRectangle;connectable=0;fillColor=none;top=0;left=0;bottom=0;right=0;align=left;spacingLeft=6;overflow=hidden;whiteSpace=wrap;html=1;fontSize=16;shadow=0;snapToPoint=0;fixDash=0;metaEdit=0;backgroundOutline=0;enumerate=0;comic=0;deletable=0;" parent="yaAyxSlWEsneB4Hl2WkM-5" vertex="1">
          <mxGeometry x="30" width="173.35294117647092" height="30" as="geometry">
            <mxRectangle width="173.35294117647092" height="30" as="alternateBounds" />
          </mxGeometry>
        </mxCell>
        <mxCell id="yaAyxSlWEsneB4Hl2WkM-153" value="VARCHAR(50)" style="shape=partialRectangle;connectable=0;fillColor=none;top=0;left=0;bottom=0;right=0;align=left;spacingLeft=6;overflow=hidden;whiteSpace=wrap;html=1;fontSize=16;shadow=0;snapToPoint=0;fixDash=0;metaEdit=0;backgroundOutline=0;enumerate=0;comic=0;deletable=0;" parent="yaAyxSlWEsneB4Hl2WkM-5" vertex="1">
          <mxGeometry x="203.35294117647092" width="161.64705882352908" height="30" as="geometry">
            <mxRectangle width="161.64705882352908" height="30" as="alternateBounds" />
          </mxGeometry>
        </mxCell>
        <mxCell id="yaAyxSlWEsneB4Hl2WkM-101" value="" style="shape=tableRow;horizontal=0;startSize=0;swimlaneHead=0;swimlaneBody=0;fillColor=none;collapsible=0;dropTarget=0;points=[[0,0.5],[1,0.5]];portConstraint=eastwest;top=0;left=0;right=0;bottom=0;fontSize=16;shadow=0;" parent="yaAyxSlWEsneB4Hl2WkM-1" vertex="1">
          <mxGeometry y="90" width="365" height="30" as="geometry" />
        </mxCell>
        <mxCell id="yaAyxSlWEsneB4Hl2WkM-102" value="" style="shape=partialRectangle;connectable=0;fillColor=none;top=0;left=0;bottom=0;right=0;editable=1;overflow=hidden;whiteSpace=wrap;html=1;fontSize=16;shadow=0;" parent="yaAyxSlWEsneB4Hl2WkM-101" vertex="1">
          <mxGeometry width="30" height="30" as="geometry">
            <mxRectangle width="30" height="30" as="alternateBounds" />
          </mxGeometry>
        </mxCell>
        <mxCell id="yaAyxSlWEsneB4Hl2WkM-103" value="Preco" style="shape=partialRectangle;connectable=0;fillColor=none;top=0;left=0;bottom=0;right=0;align=left;spacingLeft=6;overflow=hidden;whiteSpace=wrap;html=1;fontSize=16;shadow=0;snapToPoint=0;fixDash=0;metaEdit=0;backgroundOutline=0;enumerate=0;comic=0;deletable=0;" parent="yaAyxSlWEsneB4Hl2WkM-101" vertex="1">
          <mxGeometry x="30" width="173.35294117647092" height="30" as="geometry">
            <mxRectangle width="173.35294117647092" height="30" as="alternateBounds" />
          </mxGeometry>
        </mxCell>
        <mxCell id="yaAyxSlWEsneB4Hl2WkM-154" value="FLOAT" style="shape=partialRectangle;connectable=0;fillColor=none;top=0;left=0;bottom=0;right=0;align=left;spacingLeft=6;overflow=hidden;whiteSpace=wrap;html=1;fontSize=16;shadow=0;snapToPoint=0;fixDash=0;metaEdit=0;backgroundOutline=0;enumerate=0;comic=0;deletable=0;" parent="yaAyxSlWEsneB4Hl2WkM-101" vertex="1">
          <mxGeometry x="203.35294117647092" width="161.64705882352908" height="30" as="geometry">
            <mxRectangle width="161.64705882352908" height="30" as="alternateBounds" />
          </mxGeometry>
        </mxCell>
        <mxCell id="yaAyxSlWEsneB4Hl2WkM-73" value="" style="shape=tableRow;horizontal=0;startSize=0;swimlaneHead=0;swimlaneBody=0;fillColor=none;collapsible=0;dropTarget=0;points=[[0,0.5],[1,0.5]];portConstraint=eastwest;top=0;left=0;right=0;bottom=0;fontSize=16;shadow=0;" parent="yaAyxSlWEsneB4Hl2WkM-1" vertex="1">
          <mxGeometry y="120" width="365" height="30" as="geometry" />
        </mxCell>
        <mxCell id="yaAyxSlWEsneB4Hl2WkM-74" value="" style="shape=partialRectangle;connectable=0;fillColor=none;top=0;left=0;bottom=0;right=0;editable=1;overflow=hidden;whiteSpace=wrap;html=1;fontSize=16;shadow=0;" parent="yaAyxSlWEsneB4Hl2WkM-73" vertex="1">
          <mxGeometry width="30" height="30" as="geometry">
            <mxRectangle width="30" height="30" as="alternateBounds" />
          </mxGeometry>
        </mxCell>
        <mxCell id="yaAyxSlWEsneB4Hl2WkM-75" value="FK_Fornecedor" style="shape=partialRectangle;connectable=0;fillColor=none;top=0;left=0;bottom=0;right=0;align=left;spacingLeft=6;overflow=hidden;whiteSpace=wrap;html=1;fontSize=16;shadow=0;snapToPoint=0;fixDash=0;metaEdit=0;backgroundOutline=0;enumerate=0;comic=0;deletable=0;" parent="yaAyxSlWEsneB4Hl2WkM-73" vertex="1">
          <mxGeometry x="30" width="173.35294117647092" height="30" as="geometry">
            <mxRectangle width="173.35294117647092" height="30" as="alternateBounds" />
          </mxGeometry>
        </mxCell>
        <mxCell id="yaAyxSlWEsneB4Hl2WkM-156" value="INTEGER" style="shape=partialRectangle;connectable=0;fillColor=none;top=0;left=0;bottom=0;right=0;align=left;spacingLeft=6;overflow=hidden;whiteSpace=wrap;html=1;fontSize=16;shadow=0;snapToPoint=0;fixDash=0;metaEdit=0;backgroundOutline=0;enumerate=0;comic=0;deletable=0;" parent="yaAyxSlWEsneB4Hl2WkM-73" vertex="1">
          <mxGeometry x="203.35294117647092" width="161.64705882352908" height="30" as="geometry">
            <mxRectangle width="161.64705882352908" height="30" as="alternateBounds" />
          </mxGeometry>
        </mxCell>
        <mxCell id="yaAyxSlWEsneB4Hl2WkM-59" style="edgeStyle=none;curved=1;rounded=0;orthogonalLoop=1;jettySize=auto;html=1;fontSize=12;startSize=8;endSize=8;endArrow=ERoneToMany;endFill=0;shadow=0;snapToPoint=0;fixDash=0;metaEdit=0;backgroundOutline=0;enumerate=0;comic=0;deletable=0;" parent="1" source="yaAyxSlWEsneB4Hl2WkM-14" target="yaAyxSlWEsneB4Hl2WkM-1" edge="1">
          <mxGeometry relative="1" as="geometry" />
        </mxCell>
        <mxCell id="yaAyxSlWEsneB4Hl2WkM-14" value="Fornecedores" style="shape=table;startSize=30;container=1;collapsible=1;childLayout=tableLayout;fixedRows=1;rowLines=0;fontStyle=1;align=center;resizeLast=1;html=1;fontSize=16;shadow=0;snapToPoint=0;fixDash=0;metaEdit=0;backgroundOutline=0;enumerate=0;comic=0;deletable=0;" parent="1" vertex="1">
          <mxGeometry x="380" y="-38" width="392" height="120" as="geometry" />
        </mxCell>
        <mxCell id="yaAyxSlWEsneB4Hl2WkM-15" value="" style="shape=tableRow;horizontal=0;startSize=0;swimlaneHead=0;swimlaneBody=0;fillColor=none;collapsible=0;dropTarget=0;points=[[0,0.5],[1,0.5]];portConstraint=eastwest;top=0;left=0;right=0;bottom=1;fontSize=16;shadow=0;snapToPoint=0;fixDash=0;metaEdit=0;backgroundOutline=0;enumerate=0;comic=0;deletable=0;" parent="yaAyxSlWEsneB4Hl2WkM-14" vertex="1">
          <mxGeometry y="30" width="392" height="30" as="geometry" />
        </mxCell>
        <mxCell id="yaAyxSlWEsneB4Hl2WkM-16" value="PK" style="shape=partialRectangle;connectable=0;fillColor=none;top=0;left=0;bottom=0;right=0;fontStyle=1;overflow=hidden;whiteSpace=wrap;html=1;fontSize=16;shadow=0;snapToPoint=0;fixDash=0;metaEdit=0;backgroundOutline=0;enumerate=0;comic=0;deletable=0;" parent="yaAyxSlWEsneB4Hl2WkM-15" vertex="1">
          <mxGeometry width="30" height="30" as="geometry">
            <mxRectangle width="30" height="30" as="alternateBounds" />
          </mxGeometry>
        </mxCell>
        <mxCell id="yaAyxSlWEsneB4Hl2WkM-17" value="ID" style="shape=partialRectangle;connectable=0;fillColor=none;top=0;left=0;bottom=0;right=0;align=left;spacingLeft=6;fontStyle=5;overflow=hidden;whiteSpace=wrap;html=1;fontSize=16;shadow=0;snapToPoint=0;fixDash=0;metaEdit=0;backgroundOutline=0;enumerate=0;comic=0;deletable=0;" parent="yaAyxSlWEsneB4Hl2WkM-15" vertex="1">
          <mxGeometry x="30" width="150" height="30" as="geometry">
            <mxRectangle width="150" height="30" as="alternateBounds" />
          </mxGeometry>
        </mxCell>
        <mxCell id="yaAyxSlWEsneB4Hl2WkM-140" value="&lt;span style=&quot;color: rgb(0, 0, 0); font-family: Helvetica; font-size: 16px; font-style: normal; font-variant-ligatures: normal; font-variant-caps: normal; font-weight: 700; letter-spacing: normal; orphans: 2; text-align: left; text-indent: 0px; text-transform: none; widows: 2; word-spacing: 0px; -webkit-text-stroke-width: 0px; background-color: rgb(255, 255, 255); text-decoration: underline; float: none; display: inline !important;&quot;&gt;INT IDENTITY&lt;/span&gt;" style="shape=partialRectangle;connectable=0;fillColor=none;top=0;left=0;bottom=0;right=0;align=left;spacingLeft=6;fontStyle=5;overflow=hidden;whiteSpace=wrap;html=1;fontSize=16;shadow=0;snapToPoint=0;fixDash=0;metaEdit=0;backgroundOutline=0;enumerate=0;comic=0;deletable=0;" parent="yaAyxSlWEsneB4Hl2WkM-15" vertex="1">
          <mxGeometry x="180" width="212" height="30" as="geometry">
            <mxRectangle width="212" height="30" as="alternateBounds" />
          </mxGeometry>
        </mxCell>
        <mxCell id="yaAyxSlWEsneB4Hl2WkM-18" value="" style="shape=tableRow;horizontal=0;startSize=0;swimlaneHead=0;swimlaneBody=0;fillColor=none;collapsible=0;dropTarget=0;points=[[0,0.5],[1,0.5]];portConstraint=eastwest;top=0;left=0;right=0;bottom=0;fontSize=16;shadow=0;snapToPoint=0;fixDash=0;metaEdit=0;backgroundOutline=0;enumerate=0;comic=0;deletable=0;" parent="yaAyxSlWEsneB4Hl2WkM-14" vertex="1">
          <mxGeometry y="60" width="392" height="30" as="geometry" />
        </mxCell>
        <mxCell id="yaAyxSlWEsneB4Hl2WkM-19" value="" style="shape=partialRectangle;connectable=0;fillColor=none;top=0;left=0;bottom=0;right=0;editable=1;overflow=hidden;whiteSpace=wrap;html=1;fontSize=16;shadow=0;snapToPoint=0;fixDash=0;metaEdit=0;backgroundOutline=0;enumerate=0;comic=0;deletable=0;" parent="yaAyxSlWEsneB4Hl2WkM-18" vertex="1">
          <mxGeometry width="30" height="30" as="geometry">
            <mxRectangle width="30" height="30" as="alternateBounds" />
          </mxGeometry>
        </mxCell>
        <mxCell id="yaAyxSlWEsneB4Hl2WkM-20" value="CNPJ" style="shape=partialRectangle;connectable=0;fillColor=none;top=0;left=0;bottom=0;right=0;align=left;spacingLeft=6;overflow=hidden;whiteSpace=wrap;html=1;fontSize=16;shadow=0;snapToPoint=0;fixDash=0;metaEdit=0;backgroundOutline=0;enumerate=0;comic=0;deletable=0;" parent="yaAyxSlWEsneB4Hl2WkM-18" vertex="1">
          <mxGeometry x="30" width="150" height="30" as="geometry">
            <mxRectangle width="150" height="30" as="alternateBounds" />
          </mxGeometry>
        </mxCell>
        <mxCell id="yaAyxSlWEsneB4Hl2WkM-141" value="VARCHAR(14) UNIQUE" style="shape=partialRectangle;connectable=0;fillColor=none;top=0;left=0;bottom=0;right=0;align=left;spacingLeft=6;overflow=hidden;whiteSpace=wrap;html=1;fontSize=16;shadow=0;snapToPoint=0;fixDash=0;metaEdit=0;backgroundOutline=0;enumerate=0;comic=0;deletable=0;" parent="yaAyxSlWEsneB4Hl2WkM-18" vertex="1">
          <mxGeometry x="180" width="212" height="30" as="geometry">
            <mxRectangle width="212" height="30" as="alternateBounds" />
          </mxGeometry>
        </mxCell>
        <mxCell id="yaAyxSlWEsneB4Hl2WkM-137" value="" style="shape=tableRow;horizontal=0;startSize=0;swimlaneHead=0;swimlaneBody=0;fillColor=none;collapsible=0;dropTarget=0;points=[[0,0.5],[1,0.5]];portConstraint=eastwest;top=0;left=0;right=0;bottom=0;fontSize=16;shadow=0;snapToPoint=0;fixDash=0;metaEdit=0;backgroundOutline=0;enumerate=0;comic=0;deletable=0;" parent="yaAyxSlWEsneB4Hl2WkM-14" vertex="1">
          <mxGeometry y="90" width="392" height="30" as="geometry" />
        </mxCell>
        <mxCell id="yaAyxSlWEsneB4Hl2WkM-138" value="" style="shape=partialRectangle;connectable=0;fillColor=none;top=0;left=0;bottom=0;right=0;editable=1;overflow=hidden;whiteSpace=wrap;html=1;fontSize=16;shadow=0;snapToPoint=0;fixDash=0;metaEdit=0;backgroundOutline=0;enumerate=0;comic=0;deletable=0;" parent="yaAyxSlWEsneB4Hl2WkM-137" vertex="1">
          <mxGeometry width="30" height="30" as="geometry">
            <mxRectangle width="30" height="30" as="alternateBounds" />
          </mxGeometry>
        </mxCell>
        <mxCell id="yaAyxSlWEsneB4Hl2WkM-139" value="RazaoSocial" style="shape=partialRectangle;connectable=0;fillColor=none;top=0;left=0;bottom=0;right=0;align=left;spacingLeft=6;overflow=hidden;whiteSpace=wrap;html=1;fontSize=16;shadow=0;snapToPoint=0;fixDash=0;metaEdit=0;backgroundOutline=0;enumerate=0;comic=0;deletable=0;" parent="yaAyxSlWEsneB4Hl2WkM-137" vertex="1">
          <mxGeometry x="30" width="150" height="30" as="geometry">
            <mxRectangle width="150" height="30" as="alternateBounds" />
          </mxGeometry>
        </mxCell>
        <mxCell id="yaAyxSlWEsneB4Hl2WkM-142" value="VARCHAR(50)" style="shape=partialRectangle;connectable=0;fillColor=none;top=0;left=0;bottom=0;right=0;align=left;spacingLeft=6;overflow=hidden;whiteSpace=wrap;html=1;fontSize=16;shadow=0;snapToPoint=0;fixDash=0;metaEdit=0;backgroundOutline=0;enumerate=0;comic=0;deletable=0;" parent="yaAyxSlWEsneB4Hl2WkM-137" vertex="1">
          <mxGeometry x="180" width="212" height="30" as="geometry">
            <mxRectangle width="212" height="30" as="alternateBounds" />
          </mxGeometry>
        </mxCell>
        <mxCell id="yaAyxSlWEsneB4Hl2WkM-27" value="Clientes" style="shape=table;startSize=30;container=1;collapsible=1;childLayout=tableLayout;fixedRows=1;rowLines=0;fontStyle=1;align=center;resizeLast=1;html=1;fontSize=16;" parent="1" vertex="1">
          <mxGeometry x="528" y="318" width="368" height="150" as="geometry" />
        </mxCell>
        <mxCell id="yaAyxSlWEsneB4Hl2WkM-28" value="" style="shape=tableRow;horizontal=0;startSize=0;swimlaneHead=0;swimlaneBody=0;fillColor=none;collapsible=0;dropTarget=0;points=[[0,0.5],[1,0.5]];portConstraint=eastwest;top=0;left=0;right=0;bottom=1;fontSize=16;" parent="yaAyxSlWEsneB4Hl2WkM-27" vertex="1">
          <mxGeometry y="30" width="368" height="30" as="geometry" />
        </mxCell>
        <mxCell id="yaAyxSlWEsneB4Hl2WkM-29" value="PK" style="shape=partialRectangle;connectable=0;fillColor=none;top=0;left=0;bottom=0;right=0;fontStyle=1;overflow=hidden;whiteSpace=wrap;html=1;fontSize=16;shadow=0;snapToPoint=0;fixDash=0;metaEdit=0;backgroundOutline=0;enumerate=0;comic=0;deletable=0;" parent="yaAyxSlWEsneB4Hl2WkM-28" vertex="1">
          <mxGeometry width="30" height="30" as="geometry">
            <mxRectangle width="30" height="30" as="alternateBounds" />
          </mxGeometry>
        </mxCell>
        <mxCell id="yaAyxSlWEsneB4Hl2WkM-30" value="ID" style="shape=partialRectangle;connectable=0;fillColor=none;top=0;left=0;bottom=0;right=0;align=left;spacingLeft=6;fontStyle=5;overflow=hidden;whiteSpace=wrap;html=1;fontSize=16;shadow=0;snapToPoint=0;fixDash=0;metaEdit=0;backgroundOutline=0;enumerate=0;comic=0;deletable=0;" parent="yaAyxSlWEsneB4Hl2WkM-28" vertex="1">
          <mxGeometry x="30" width="150" height="30" as="geometry">
            <mxRectangle width="150" height="30" as="alternateBounds" />
          </mxGeometry>
        </mxCell>
        <mxCell id="yaAyxSlWEsneB4Hl2WkM-117" value="INT IDENTITY" style="shape=partialRectangle;connectable=0;fillColor=none;top=0;left=0;bottom=0;right=0;align=left;spacingLeft=6;fontStyle=5;overflow=hidden;whiteSpace=wrap;html=1;fontSize=16;" parent="yaAyxSlWEsneB4Hl2WkM-28" vertex="1">
          <mxGeometry x="180" width="188" height="30" as="geometry">
            <mxRectangle width="188" height="30" as="alternateBounds" />
          </mxGeometry>
        </mxCell>
        <mxCell id="yaAyxSlWEsneB4Hl2WkM-31" value="" style="shape=tableRow;horizontal=0;startSize=0;swimlaneHead=0;swimlaneBody=0;fillColor=none;collapsible=0;dropTarget=0;points=[[0,0.5],[1,0.5]];portConstraint=eastwest;top=0;left=0;right=0;bottom=0;fontSize=16;" parent="yaAyxSlWEsneB4Hl2WkM-27" vertex="1">
          <mxGeometry y="60" width="368" height="30" as="geometry" />
        </mxCell>
        <mxCell id="yaAyxSlWEsneB4Hl2WkM-32" value="" style="shape=partialRectangle;connectable=0;fillColor=none;top=0;left=0;bottom=0;right=0;editable=1;overflow=hidden;whiteSpace=wrap;html=1;fontSize=16;shadow=0;snapToPoint=0;fixDash=0;metaEdit=0;backgroundOutline=0;enumerate=0;comic=0;deletable=0;" parent="yaAyxSlWEsneB4Hl2WkM-31" vertex="1">
          <mxGeometry width="30" height="30" as="geometry">
            <mxRectangle width="30" height="30" as="alternateBounds" />
          </mxGeometry>
        </mxCell>
        <mxCell id="yaAyxSlWEsneB4Hl2WkM-33" value="CPF" style="shape=partialRectangle;connectable=0;fillColor=none;top=0;left=0;bottom=0;right=0;align=left;spacingLeft=6;overflow=hidden;whiteSpace=wrap;html=1;fontSize=16;shadow=0;snapToPoint=0;fixDash=0;metaEdit=0;backgroundOutline=0;enumerate=0;comic=0;deletable=0;" parent="yaAyxSlWEsneB4Hl2WkM-31" vertex="1">
          <mxGeometry x="30" width="150" height="30" as="geometry">
            <mxRectangle width="150" height="30" as="alternateBounds" />
          </mxGeometry>
        </mxCell>
        <mxCell id="yaAyxSlWEsneB4Hl2WkM-118" value="VARCHAR(11) UNIQUE" style="shape=partialRectangle;connectable=0;fillColor=none;top=0;left=0;bottom=0;right=0;align=left;spacingLeft=6;overflow=hidden;whiteSpace=wrap;html=1;fontSize=16;" parent="yaAyxSlWEsneB4Hl2WkM-31" vertex="1">
          <mxGeometry x="180" width="188" height="30" as="geometry">
            <mxRectangle width="188" height="30" as="alternateBounds" />
          </mxGeometry>
        </mxCell>
        <mxCell id="yaAyxSlWEsneB4Hl2WkM-125" value="" style="shape=tableRow;horizontal=0;startSize=0;swimlaneHead=0;swimlaneBody=0;fillColor=none;collapsible=0;dropTarget=0;points=[[0,0.5],[1,0.5]];portConstraint=eastwest;top=0;left=0;right=0;bottom=0;fontSize=16;" parent="yaAyxSlWEsneB4Hl2WkM-27" vertex="1">
          <mxGeometry y="90" width="368" height="30" as="geometry" />
        </mxCell>
        <mxCell id="yaAyxSlWEsneB4Hl2WkM-126" value="" style="shape=partialRectangle;connectable=0;fillColor=none;top=0;left=0;bottom=0;right=0;editable=1;overflow=hidden;whiteSpace=wrap;html=1;fontSize=16;shadow=0;snapToPoint=0;fixDash=0;metaEdit=0;backgroundOutline=0;enumerate=0;comic=0;deletable=0;" parent="yaAyxSlWEsneB4Hl2WkM-125" vertex="1">
          <mxGeometry width="30" height="30" as="geometry">
            <mxRectangle width="30" height="30" as="alternateBounds" />
          </mxGeometry>
        </mxCell>
        <mxCell id="yaAyxSlWEsneB4Hl2WkM-127" value="Nome" style="shape=partialRectangle;connectable=0;fillColor=none;top=0;left=0;bottom=0;right=0;align=left;spacingLeft=6;overflow=hidden;whiteSpace=wrap;html=1;fontSize=16;shadow=0;snapToPoint=0;fixDash=0;metaEdit=0;backgroundOutline=0;enumerate=0;comic=0;deletable=0;" parent="yaAyxSlWEsneB4Hl2WkM-125" vertex="1">
          <mxGeometry x="30" width="150" height="30" as="geometry">
            <mxRectangle width="150" height="30" as="alternateBounds" />
          </mxGeometry>
        </mxCell>
        <mxCell id="yaAyxSlWEsneB4Hl2WkM-128" value="VARCHAR(100)" style="shape=partialRectangle;connectable=0;fillColor=none;top=0;left=0;bottom=0;right=0;align=left;spacingLeft=6;overflow=hidden;whiteSpace=wrap;html=1;fontSize=16;" parent="yaAyxSlWEsneB4Hl2WkM-125" vertex="1">
          <mxGeometry x="180" width="188" height="30" as="geometry">
            <mxRectangle width="188" height="30" as="alternateBounds" />
          </mxGeometry>
        </mxCell>
        <mxCell id="yaAyxSlWEsneB4Hl2WkM-34" value="" style="shape=tableRow;horizontal=0;startSize=0;swimlaneHead=0;swimlaneBody=0;fillColor=none;collapsible=0;dropTarget=0;points=[[0,0.5],[1,0.5]];portConstraint=eastwest;top=0;left=0;right=0;bottom=0;fontSize=16;" parent="yaAyxSlWEsneB4Hl2WkM-27" vertex="1">
          <mxGeometry y="120" width="368" height="30" as="geometry" />
        </mxCell>
        <mxCell id="yaAyxSlWEsneB4Hl2WkM-35" value="" style="shape=partialRectangle;connectable=0;fillColor=none;top=0;left=0;bottom=0;right=0;editable=1;overflow=hidden;whiteSpace=wrap;html=1;fontSize=16;shadow=0;snapToPoint=0;fixDash=0;metaEdit=0;backgroundOutline=0;enumerate=0;comic=0;deletable=0;" parent="yaAyxSlWEsneB4Hl2WkM-34" vertex="1">
          <mxGeometry width="30" height="30" as="geometry">
            <mxRectangle width="30" height="30" as="alternateBounds" />
          </mxGeometry>
        </mxCell>
        <mxCell id="yaAyxSlWEsneB4Hl2WkM-36" value="Email" style="shape=partialRectangle;connectable=0;fillColor=none;top=0;left=0;bottom=0;right=0;align=left;spacingLeft=6;overflow=hidden;whiteSpace=wrap;html=1;fontSize=16;shadow=0;snapToPoint=0;fixDash=0;metaEdit=0;backgroundOutline=0;enumerate=0;comic=0;deletable=0;" parent="yaAyxSlWEsneB4Hl2WkM-34" vertex="1">
          <mxGeometry x="30" width="150" height="30" as="geometry">
            <mxRectangle width="150" height="30" as="alternateBounds" />
          </mxGeometry>
        </mxCell>
        <mxCell id="yaAyxSlWEsneB4Hl2WkM-119" value="VARCHAR(100)" style="shape=partialRectangle;connectable=0;fillColor=none;top=0;left=0;bottom=0;right=0;align=left;spacingLeft=6;overflow=hidden;whiteSpace=wrap;html=1;fontSize=16;" parent="yaAyxSlWEsneB4Hl2WkM-34" vertex="1">
          <mxGeometry x="180" width="188" height="30" as="geometry">
            <mxRectangle width="188" height="30" as="alternateBounds" />
          </mxGeometry>
        </mxCell>
        <mxCell id="yaAyxSlWEsneB4Hl2WkM-107" style="edgeStyle=none;curved=1;rounded=0;orthogonalLoop=1;jettySize=auto;html=1;fontSize=12;startSize=8;endSize=8;shadow=0;snapToPoint=0;fixDash=0;metaEdit=0;backgroundOutline=0;enumerate=0;comic=0;deletable=0;" parent="1" source="yaAyxSlWEsneB4Hl2WkM-40" target="yaAyxSlWEsneB4Hl2WkM-82" edge="1">
          <mxGeometry relative="1" as="geometry" />
        </mxCell>
        <mxCell id="yaAyxSlWEsneB4Hl2WkM-40" value="Notas" style="shape=table;startSize=30;container=1;collapsible=1;childLayout=tableLayout;fixedRows=1;rowLines=0;fontStyle=1;align=center;resizeLast=1;html=1;fontSize=16;shadow=0;snapToPoint=0;fixDash=0;metaEdit=0;backgroundOutline=0;enumerate=0;comic=0;deletable=0;" parent="1" vertex="1">
          <mxGeometry x="65" y="318" width="330" height="150" as="geometry" />
        </mxCell>
        <mxCell id="yaAyxSlWEsneB4Hl2WkM-41" value="" style="shape=tableRow;horizontal=0;startSize=0;swimlaneHead=0;swimlaneBody=0;fillColor=none;collapsible=0;dropTarget=0;points=[[0,0.5],[1,0.5]];portConstraint=eastwest;top=0;left=0;right=0;bottom=1;fontSize=16;shadow=0;snapToPoint=0;fixDash=0;metaEdit=0;backgroundOutline=0;enumerate=0;comic=0;deletable=0;" parent="yaAyxSlWEsneB4Hl2WkM-40" vertex="1">
          <mxGeometry y="30" width="330" height="30" as="geometry" />
        </mxCell>
        <mxCell id="yaAyxSlWEsneB4Hl2WkM-42" value="PK" style="shape=partialRectangle;connectable=0;fillColor=none;top=0;left=0;bottom=0;right=0;fontStyle=1;overflow=hidden;whiteSpace=wrap;html=1;fontSize=16;shadow=0;snapToPoint=0;fixDash=0;metaEdit=0;backgroundOutline=0;enumerate=0;comic=0;deletable=0;" parent="yaAyxSlWEsneB4Hl2WkM-41" vertex="1">
          <mxGeometry width="30" height="30" as="geometry">
            <mxRectangle width="30" height="30" as="alternateBounds" />
          </mxGeometry>
        </mxCell>
        <mxCell id="yaAyxSlWEsneB4Hl2WkM-43" value="ID" style="shape=partialRectangle;connectable=0;fillColor=none;top=0;left=0;bottom=0;right=0;align=left;spacingLeft=6;fontStyle=5;overflow=hidden;whiteSpace=wrap;html=1;fontSize=16;shadow=0;snapToPoint=0;fixDash=0;metaEdit=0;backgroundOutline=0;enumerate=0;comic=0;deletable=0;" parent="yaAyxSlWEsneB4Hl2WkM-41" vertex="1">
          <mxGeometry x="30" width="150" height="30" as="geometry">
            <mxRectangle width="150" height="30" as="alternateBounds" />
          </mxGeometry>
        </mxCell>
        <mxCell id="yaAyxSlWEsneB4Hl2WkM-143" value="INT IDENTITY" style="shape=partialRectangle;connectable=0;fillColor=none;top=0;left=0;bottom=0;right=0;align=left;spacingLeft=6;fontStyle=5;overflow=hidden;whiteSpace=wrap;html=1;fontSize=16;shadow=0;snapToPoint=0;fixDash=0;metaEdit=0;backgroundOutline=0;enumerate=0;comic=0;deletable=0;" parent="yaAyxSlWEsneB4Hl2WkM-41" vertex="1">
          <mxGeometry x="180" width="150" height="30" as="geometry">
            <mxRectangle width="150" height="30" as="alternateBounds" />
          </mxGeometry>
        </mxCell>
        <mxCell id="yaAyxSlWEsneB4Hl2WkM-44" value="" style="shape=tableRow;horizontal=0;startSize=0;swimlaneHead=0;swimlaneBody=0;fillColor=none;collapsible=0;dropTarget=0;points=[[0,0.5],[1,0.5]];portConstraint=eastwest;top=0;left=0;right=0;bottom=0;fontSize=16;shadow=0;snapToPoint=0;fixDash=0;metaEdit=0;backgroundOutline=0;enumerate=0;comic=0;deletable=0;" parent="yaAyxSlWEsneB4Hl2WkM-40" vertex="1">
          <mxGeometry y="60" width="330" height="30" as="geometry" />
        </mxCell>
        <mxCell id="yaAyxSlWEsneB4Hl2WkM-45" value="" style="shape=partialRectangle;connectable=0;fillColor=none;top=0;left=0;bottom=0;right=0;editable=1;overflow=hidden;whiteSpace=wrap;html=1;fontSize=16;shadow=0;snapToPoint=0;fixDash=0;metaEdit=0;backgroundOutline=0;enumerate=0;comic=0;deletable=0;" parent="yaAyxSlWEsneB4Hl2WkM-44" vertex="1">
          <mxGeometry width="30" height="30" as="geometry">
            <mxRectangle width="30" height="30" as="alternateBounds" />
          </mxGeometry>
        </mxCell>
        <mxCell id="yaAyxSlWEsneB4Hl2WkM-46" value="DataCompra" style="shape=partialRectangle;connectable=0;fillColor=none;top=0;left=0;bottom=0;right=0;align=left;spacingLeft=6;overflow=hidden;whiteSpace=wrap;html=1;fontSize=16;shadow=0;snapToPoint=0;fixDash=0;metaEdit=0;backgroundOutline=0;enumerate=0;comic=0;deletable=0;" parent="yaAyxSlWEsneB4Hl2WkM-44" vertex="1">
          <mxGeometry x="30" width="150" height="30" as="geometry">
            <mxRectangle width="150" height="30" as="alternateBounds" />
          </mxGeometry>
        </mxCell>
        <mxCell id="yaAyxSlWEsneB4Hl2WkM-144" value="DATETIME" style="shape=partialRectangle;connectable=0;fillColor=none;top=0;left=0;bottom=0;right=0;align=left;spacingLeft=6;overflow=hidden;whiteSpace=wrap;html=1;fontSize=16;shadow=0;snapToPoint=0;fixDash=0;metaEdit=0;backgroundOutline=0;enumerate=0;comic=0;deletable=0;" parent="yaAyxSlWEsneB4Hl2WkM-44" vertex="1">
          <mxGeometry x="180" width="150" height="30" as="geometry">
            <mxRectangle width="150" height="30" as="alternateBounds" />
          </mxGeometry>
        </mxCell>
        <mxCell id="yaAyxSlWEsneB4Hl2WkM-157" value="" style="shape=tableRow;horizontal=0;startSize=0;swimlaneHead=0;swimlaneBody=0;fillColor=none;collapsible=0;dropTarget=0;points=[[0,0.5],[1,0.5]];portConstraint=eastwest;top=0;left=0;right=0;bottom=0;fontSize=16;shadow=0;snapToPoint=0;fixDash=0;metaEdit=0;backgroundOutline=0;enumerate=0;comic=0;deletable=0;" parent="yaAyxSlWEsneB4Hl2WkM-40" vertex="1">
          <mxGeometry y="90" width="330" height="30" as="geometry" />
        </mxCell>
        <mxCell id="yaAyxSlWEsneB4Hl2WkM-158" value="" style="shape=partialRectangle;connectable=0;fillColor=none;top=0;left=0;bottom=0;right=0;editable=1;overflow=hidden;whiteSpace=wrap;html=1;fontSize=16;shadow=0;snapToPoint=0;fixDash=0;metaEdit=0;backgroundOutline=0;enumerate=0;comic=0;deletable=0;" parent="yaAyxSlWEsneB4Hl2WkM-157" vertex="1">
          <mxGeometry width="30" height="30" as="geometry">
            <mxRectangle width="30" height="30" as="alternateBounds" />
          </mxGeometry>
        </mxCell>
        <mxCell id="yaAyxSlWEsneB4Hl2WkM-159" value="Status&lt;span style=&quot;white-space: pre;&quot;&gt;&#x9;&lt;/span&gt;" style="shape=partialRectangle;connectable=0;fillColor=none;top=0;left=0;bottom=0;right=0;align=left;spacingLeft=6;overflow=hidden;whiteSpace=wrap;html=1;fontSize=16;shadow=0;snapToPoint=0;fixDash=0;metaEdit=0;backgroundOutline=0;enumerate=0;comic=0;deletable=0;" parent="yaAyxSlWEsneB4Hl2WkM-157" vertex="1">
          <mxGeometry x="30" width="150" height="30" as="geometry">
            <mxRectangle width="150" height="30" as="alternateBounds" />
          </mxGeometry>
        </mxCell>
        <mxCell id="yaAyxSlWEsneB4Hl2WkM-160" value="VARCHAR(20)" style="shape=partialRectangle;connectable=0;fillColor=none;top=0;left=0;bottom=0;right=0;align=left;spacingLeft=6;overflow=hidden;whiteSpace=wrap;html=1;fontSize=16;shadow=0;snapToPoint=0;fixDash=0;metaEdit=0;backgroundOutline=0;enumerate=0;comic=0;deletable=0;" parent="yaAyxSlWEsneB4Hl2WkM-157" vertex="1">
          <mxGeometry x="180" width="150" height="30" as="geometry">
            <mxRectangle width="150" height="30" as="alternateBounds" />
          </mxGeometry>
        </mxCell>
        <mxCell id="yaAyxSlWEsneB4Hl2WkM-47" value="" style="shape=tableRow;horizontal=0;startSize=0;swimlaneHead=0;swimlaneBody=0;fillColor=none;collapsible=0;dropTarget=0;points=[[0,0.5],[1,0.5]];portConstraint=eastwest;top=0;left=0;right=0;bottom=0;fontSize=16;shadow=0;snapToPoint=0;fixDash=0;metaEdit=0;backgroundOutline=0;enumerate=0;comic=0;deletable=0;" parent="yaAyxSlWEsneB4Hl2WkM-40" vertex="1">
          <mxGeometry y="120" width="330" height="30" as="geometry" />
        </mxCell>
        <mxCell id="yaAyxSlWEsneB4Hl2WkM-48" value="" style="shape=partialRectangle;connectable=0;fillColor=none;top=0;left=0;bottom=0;right=0;editable=1;overflow=hidden;whiteSpace=wrap;html=1;fontSize=16;shadow=0;snapToPoint=0;fixDash=0;metaEdit=0;backgroundOutline=0;enumerate=0;comic=0;deletable=0;" parent="yaAyxSlWEsneB4Hl2WkM-47" vertex="1">
          <mxGeometry width="30" height="30" as="geometry">
            <mxRectangle width="30" height="30" as="alternateBounds" />
          </mxGeometry>
        </mxCell>
        <mxCell id="yaAyxSlWEsneB4Hl2WkM-49" value="FK_Cliente" style="shape=partialRectangle;connectable=0;fillColor=none;top=0;left=0;bottom=0;right=0;align=left;spacingLeft=6;overflow=hidden;whiteSpace=wrap;html=1;fontSize=16;shadow=0;snapToPoint=0;fixDash=0;metaEdit=0;backgroundOutline=0;enumerate=0;comic=0;deletable=0;" parent="yaAyxSlWEsneB4Hl2WkM-47" vertex="1">
          <mxGeometry x="30" width="150" height="30" as="geometry">
            <mxRectangle width="150" height="30" as="alternateBounds" />
          </mxGeometry>
        </mxCell>
        <mxCell id="yaAyxSlWEsneB4Hl2WkM-145" value="INTEGER" style="shape=partialRectangle;connectable=0;fillColor=none;top=0;left=0;bottom=0;right=0;align=left;spacingLeft=6;overflow=hidden;whiteSpace=wrap;html=1;fontSize=16;shadow=0;snapToPoint=0;fixDash=0;metaEdit=0;backgroundOutline=0;enumerate=0;comic=0;deletable=0;" parent="yaAyxSlWEsneB4Hl2WkM-47" vertex="1">
          <mxGeometry x="180" width="150" height="30" as="geometry">
            <mxRectangle width="150" height="30" as="alternateBounds" />
          </mxGeometry>
        </mxCell>
        <mxCell id="yaAyxSlWEsneB4Hl2WkM-112" style="edgeStyle=none;curved=1;rounded=0;orthogonalLoop=1;jettySize=auto;html=1;fontSize=12;startSize=8;endSize=8;shadow=0;snapToPoint=0;fixDash=0;metaEdit=0;backgroundOutline=0;enumerate=0;comic=0;deletable=0;" parent="1" source="yaAyxSlWEsneB4Hl2WkM-82" target="yaAyxSlWEsneB4Hl2WkM-1" edge="1">
          <mxGeometry relative="1" as="geometry" />
        </mxCell>
        <mxCell id="yaAyxSlWEsneB4Hl2WkM-82" value="Itens_Nota" style="shape=table;startSize=30;container=1;collapsible=1;childLayout=tableLayout;fixedRows=1;rowLines=0;fontStyle=1;align=center;resizeLast=1;html=1;fontSize=16;shadow=0;" parent="1" vertex="1">
          <mxGeometry x="-386" y="304" width="330" height="240" as="geometry" />
        </mxCell>
        <mxCell id="yaAyxSlWEsneB4Hl2WkM-83" value="" style="shape=tableRow;horizontal=0;startSize=0;swimlaneHead=0;swimlaneBody=0;fillColor=none;collapsible=0;dropTarget=0;points=[[0,0.5],[1,0.5]];portConstraint=eastwest;top=0;left=0;right=0;bottom=1;fontSize=16;shadow=0;" parent="yaAyxSlWEsneB4Hl2WkM-82" vertex="1">
          <mxGeometry y="30" width="330" height="30" as="geometry" />
        </mxCell>
        <mxCell id="yaAyxSlWEsneB4Hl2WkM-84" value="PK" style="shape=partialRectangle;connectable=0;fillColor=none;top=0;left=0;bottom=0;right=0;fontStyle=1;overflow=hidden;whiteSpace=wrap;html=1;fontSize=16;shadow=0;" parent="yaAyxSlWEsneB4Hl2WkM-83" vertex="1">
          <mxGeometry width="30" height="30" as="geometry">
            <mxRectangle width="30" height="30" as="alternateBounds" />
          </mxGeometry>
        </mxCell>
        <mxCell id="yaAyxSlWEsneB4Hl2WkM-85" value="ID" style="shape=partialRectangle;connectable=0;fillColor=none;top=0;left=0;bottom=0;right=0;align=left;spacingLeft=6;fontStyle=5;overflow=hidden;whiteSpace=wrap;html=1;fontSize=16;shadow=0;snapToPoint=0;fixDash=0;metaEdit=0;backgroundOutline=0;enumerate=0;comic=0;deletable=0;" parent="yaAyxSlWEsneB4Hl2WkM-83" vertex="1">
          <mxGeometry x="30" width="150" height="30" as="geometry">
            <mxRectangle width="150" height="30" as="alternateBounds" />
          </mxGeometry>
        </mxCell>
        <mxCell id="yaAyxSlWEsneB4Hl2WkM-146" value="INT IDENTITY" style="shape=partialRectangle;connectable=0;fillColor=none;top=0;left=0;bottom=0;right=0;align=left;spacingLeft=6;fontStyle=5;overflow=hidden;whiteSpace=wrap;html=1;fontSize=16;shadow=0;snapToPoint=0;fixDash=0;metaEdit=0;backgroundOutline=0;enumerate=0;comic=0;deletable=0;" parent="yaAyxSlWEsneB4Hl2WkM-83" vertex="1">
          <mxGeometry x="180" width="150" height="30" as="geometry">
            <mxRectangle width="150" height="30" as="alternateBounds" />
          </mxGeometry>
        </mxCell>
        <mxCell id="lYWXqPb6IsiuER5vyxAF-5" value="" style="shape=tableRow;horizontal=0;startSize=0;swimlaneHead=0;swimlaneBody=0;fillColor=none;collapsible=0;dropTarget=0;points=[[0,0.5],[1,0.5]];portConstraint=eastwest;top=0;left=0;right=0;bottom=0;fontSize=16;shadow=0;" parent="yaAyxSlWEsneB4Hl2WkM-82" vertex="1">
          <mxGeometry y="60" width="330" height="30" as="geometry" />
        </mxCell>
        <mxCell id="lYWXqPb6IsiuER5vyxAF-6" value="" style="shape=partialRectangle;connectable=0;fillColor=none;top=0;left=0;bottom=0;right=0;editable=1;overflow=hidden;whiteSpace=wrap;html=1;fontSize=16;shadow=0;" parent="lYWXqPb6IsiuER5vyxAF-5" vertex="1">
          <mxGeometry width="30" height="30" as="geometry">
            <mxRectangle width="30" height="30" as="alternateBounds" />
          </mxGeometry>
        </mxCell>
        <mxCell id="lYWXqPb6IsiuER5vyxAF-7" value="Nome" style="shape=partialRectangle;connectable=0;fillColor=none;top=0;left=0;bottom=0;right=0;align=left;spacingLeft=6;overflow=hidden;whiteSpace=wrap;html=1;fontSize=16;shadow=0;snapToPoint=0;fixDash=0;metaEdit=0;backgroundOutline=0;enumerate=0;comic=0;deletable=0;" parent="lYWXqPb6IsiuER5vyxAF-5" vertex="1">
          <mxGeometry x="30" width="150" height="30" as="geometry">
            <mxRectangle width="150" height="30" as="alternateBounds" />
          </mxGeometry>
        </mxCell>
        <mxCell id="lYWXqPb6IsiuER5vyxAF-8" value="VARCHAR(50)" style="shape=partialRectangle;connectable=0;fillColor=none;top=0;left=0;bottom=0;right=0;align=left;spacingLeft=6;overflow=hidden;whiteSpace=wrap;html=1;fontSize=16;shadow=0;snapToPoint=0;fixDash=0;metaEdit=0;backgroundOutline=0;enumerate=0;comic=0;deletable=0;" parent="lYWXqPb6IsiuER5vyxAF-5" vertex="1">
          <mxGeometry x="180" width="150" height="30" as="geometry">
            <mxRectangle width="150" height="30" as="alternateBounds" />
          </mxGeometry>
        </mxCell>
        <mxCell id="yaAyxSlWEsneB4Hl2WkM-98" value="" style="shape=tableRow;horizontal=0;startSize=0;swimlaneHead=0;swimlaneBody=0;fillColor=none;collapsible=0;dropTarget=0;points=[[0,0.5],[1,0.5]];portConstraint=eastwest;top=0;left=0;right=0;bottom=0;fontSize=16;shadow=0;" parent="yaAyxSlWEsneB4Hl2WkM-82" vertex="1">
          <mxGeometry y="90" width="330" height="30" as="geometry" />
        </mxCell>
        <mxCell id="yaAyxSlWEsneB4Hl2WkM-99" value="" style="shape=partialRectangle;connectable=0;fillColor=none;top=0;left=0;bottom=0;right=0;editable=1;overflow=hidden;whiteSpace=wrap;html=1;fontSize=16;shadow=0;" parent="yaAyxSlWEsneB4Hl2WkM-98" vertex="1">
          <mxGeometry width="30" height="30" as="geometry">
            <mxRectangle width="30" height="30" as="alternateBounds" />
          </mxGeometry>
        </mxCell>
        <mxCell id="yaAyxSlWEsneB4Hl2WkM-100" value="Preco" style="shape=partialRectangle;connectable=0;fillColor=none;top=0;left=0;bottom=0;right=0;align=left;spacingLeft=6;overflow=hidden;whiteSpace=wrap;html=1;fontSize=16;shadow=0;snapToPoint=0;fixDash=0;metaEdit=0;backgroundOutline=0;enumerate=0;comic=0;deletable=0;" parent="yaAyxSlWEsneB4Hl2WkM-98" vertex="1">
          <mxGeometry x="30" width="150" height="30" as="geometry">
            <mxRectangle width="150" height="30" as="alternateBounds" />
          </mxGeometry>
        </mxCell>
        <mxCell id="yaAyxSlWEsneB4Hl2WkM-150" value="FLOAT" style="shape=partialRectangle;connectable=0;fillColor=none;top=0;left=0;bottom=0;right=0;align=left;spacingLeft=6;overflow=hidden;whiteSpace=wrap;html=1;fontSize=16;shadow=0;snapToPoint=0;fixDash=0;metaEdit=0;backgroundOutline=0;enumerate=0;comic=0;deletable=0;" parent="yaAyxSlWEsneB4Hl2WkM-98" vertex="1">
          <mxGeometry x="180" width="150" height="30" as="geometry">
            <mxRectangle width="150" height="30" as="alternateBounds" />
          </mxGeometry>
        </mxCell>
        <mxCell id="yaAyxSlWEsneB4Hl2WkM-104" value="" style="shape=tableRow;horizontal=0;startSize=0;swimlaneHead=0;swimlaneBody=0;fillColor=none;collapsible=0;dropTarget=0;points=[[0,0.5],[1,0.5]];portConstraint=eastwest;top=0;left=0;right=0;bottom=0;fontSize=16;shadow=0;" parent="yaAyxSlWEsneB4Hl2WkM-82" vertex="1">
          <mxGeometry y="120" width="330" height="30" as="geometry" />
        </mxCell>
        <mxCell id="yaAyxSlWEsneB4Hl2WkM-105" value="" style="shape=partialRectangle;connectable=0;fillColor=none;top=0;left=0;bottom=0;right=0;editable=1;overflow=hidden;whiteSpace=wrap;html=1;fontSize=16;shadow=0;" parent="yaAyxSlWEsneB4Hl2WkM-104" vertex="1">
          <mxGeometry width="30" height="30" as="geometry">
            <mxRectangle width="30" height="30" as="alternateBounds" />
          </mxGeometry>
        </mxCell>
        <mxCell id="yaAyxSlWEsneB4Hl2WkM-106" value="Quantidade" style="shape=partialRectangle;connectable=0;fillColor=none;top=0;left=0;bottom=0;right=0;align=left;spacingLeft=6;overflow=hidden;whiteSpace=wrap;html=1;fontSize=16;shadow=0;snapToPoint=0;fixDash=0;metaEdit=0;backgroundOutline=0;enumerate=0;comic=0;deletable=0;" parent="yaAyxSlWEsneB4Hl2WkM-104" vertex="1">
          <mxGeometry x="30" width="150" height="30" as="geometry">
            <mxRectangle width="150" height="30" as="alternateBounds" />
          </mxGeometry>
        </mxCell>
        <mxCell id="yaAyxSlWEsneB4Hl2WkM-151" value="INTEGER" style="shape=partialRectangle;connectable=0;fillColor=none;top=0;left=0;bottom=0;right=0;align=left;spacingLeft=6;overflow=hidden;whiteSpace=wrap;html=1;fontSize=16;shadow=0;snapToPoint=0;fixDash=0;metaEdit=0;backgroundOutline=0;enumerate=0;comic=0;deletable=0;" parent="yaAyxSlWEsneB4Hl2WkM-104" vertex="1">
          <mxGeometry x="180" width="150" height="30" as="geometry">
            <mxRectangle width="150" height="30" as="alternateBounds" />
          </mxGeometry>
        </mxCell>
        <mxCell id="lYWXqPb6IsiuER5vyxAF-1" value="" style="shape=tableRow;horizontal=0;startSize=0;swimlaneHead=0;swimlaneBody=0;fillColor=none;collapsible=0;dropTarget=0;points=[[0,0.5],[1,0.5]];portConstraint=eastwest;top=0;left=0;right=0;bottom=0;fontSize=16;shadow=0;" parent="yaAyxSlWEsneB4Hl2WkM-82" vertex="1">
          <mxGeometry y="150" width="330" height="30" as="geometry" />
        </mxCell>
        <mxCell id="lYWXqPb6IsiuER5vyxAF-2" value="" style="shape=partialRectangle;connectable=0;fillColor=none;top=0;left=0;bottom=0;right=0;editable=1;overflow=hidden;whiteSpace=wrap;html=1;fontSize=16;shadow=0;" parent="lYWXqPb6IsiuER5vyxAF-1" vertex="1">
          <mxGeometry width="30" height="30" as="geometry">
            <mxRectangle width="30" height="30" as="alternateBounds" />
          </mxGeometry>
        </mxCell>
        <mxCell id="lYWXqPb6IsiuER5vyxAF-3" value="Valor_Total" style="shape=partialRectangle;connectable=0;fillColor=none;top=0;left=0;bottom=0;right=0;align=left;spacingLeft=6;overflow=hidden;whiteSpace=wrap;html=1;fontSize=16;shadow=0;snapToPoint=0;fixDash=0;metaEdit=0;backgroundOutline=0;enumerate=0;comic=0;deletable=0;" parent="lYWXqPb6IsiuER5vyxAF-1" vertex="1">
          <mxGeometry x="30" width="150" height="30" as="geometry">
            <mxRectangle width="150" height="30" as="alternateBounds" />
          </mxGeometry>
        </mxCell>
        <mxCell id="lYWXqPb6IsiuER5vyxAF-4" value="FLOAT" style="shape=partialRectangle;connectable=0;fillColor=none;top=0;left=0;bottom=0;right=0;align=left;spacingLeft=6;overflow=hidden;whiteSpace=wrap;html=1;fontSize=16;shadow=0;snapToPoint=0;fixDash=0;metaEdit=0;backgroundOutline=0;enumerate=0;comic=0;deletable=0;" parent="lYWXqPb6IsiuER5vyxAF-1" vertex="1">
          <mxGeometry x="180" width="150" height="30" as="geometry">
            <mxRectangle width="150" height="30" as="alternateBounds" />
          </mxGeometry>
        </mxCell>
        <mxCell id="yaAyxSlWEsneB4Hl2WkM-95" value="" style="shape=tableRow;horizontal=0;startSize=0;swimlaneHead=0;swimlaneBody=0;fillColor=none;collapsible=0;dropTarget=0;points=[[0,0.5],[1,0.5]];portConstraint=eastwest;top=0;left=0;right=0;bottom=0;fontSize=16;shadow=0;" parent="yaAyxSlWEsneB4Hl2WkM-82" vertex="1">
          <mxGeometry y="180" width="330" height="30" as="geometry" />
        </mxCell>
        <mxCell id="yaAyxSlWEsneB4Hl2WkM-96" value="" style="shape=partialRectangle;connectable=0;fillColor=none;top=0;left=0;bottom=0;right=0;editable=1;overflow=hidden;whiteSpace=wrap;html=1;fontSize=16;shadow=0;" parent="yaAyxSlWEsneB4Hl2WkM-95" vertex="1">
          <mxGeometry width="30" height="30" as="geometry">
            <mxRectangle width="30" height="30" as="alternateBounds" />
          </mxGeometry>
        </mxCell>
        <mxCell id="yaAyxSlWEsneB4Hl2WkM-97" value="FK_Nota" style="shape=partialRectangle;connectable=0;fillColor=none;top=0;left=0;bottom=0;right=0;align=left;spacingLeft=6;overflow=hidden;whiteSpace=wrap;html=1;fontSize=16;shadow=0;snapToPoint=0;fixDash=0;metaEdit=0;backgroundOutline=0;enumerate=0;comic=0;deletable=0;" parent="yaAyxSlWEsneB4Hl2WkM-95" vertex="1">
          <mxGeometry x="30" width="150" height="30" as="geometry">
            <mxRectangle width="150" height="30" as="alternateBounds" />
          </mxGeometry>
        </mxCell>
        <mxCell id="yaAyxSlWEsneB4Hl2WkM-147" value="INTEGER" style="shape=partialRectangle;connectable=0;fillColor=none;top=0;left=0;bottom=0;right=0;align=left;spacingLeft=6;overflow=hidden;whiteSpace=wrap;html=1;fontSize=16;shadow=0;snapToPoint=0;fixDash=0;metaEdit=0;backgroundOutline=0;enumerate=0;comic=0;deletable=0;" parent="yaAyxSlWEsneB4Hl2WkM-95" vertex="1">
          <mxGeometry x="180" width="150" height="30" as="geometry">
            <mxRectangle width="150" height="30" as="alternateBounds" />
          </mxGeometry>
        </mxCell>
        <mxCell id="yaAyxSlWEsneB4Hl2WkM-109" value="" style="shape=tableRow;horizontal=0;startSize=0;swimlaneHead=0;swimlaneBody=0;fillColor=none;collapsible=0;dropTarget=0;points=[[0,0.5],[1,0.5]];portConstraint=eastwest;top=0;left=0;right=0;bottom=0;fontSize=16;shadow=0;" parent="yaAyxSlWEsneB4Hl2WkM-82" vertex="1">
          <mxGeometry y="210" width="330" height="30" as="geometry" />
        </mxCell>
        <mxCell id="yaAyxSlWEsneB4Hl2WkM-110" value="" style="shape=partialRectangle;connectable=0;fillColor=none;top=0;left=0;bottom=0;right=0;editable=1;overflow=hidden;whiteSpace=wrap;html=1;fontSize=16;shadow=0;" parent="yaAyxSlWEsneB4Hl2WkM-109" vertex="1">
          <mxGeometry width="30" height="30" as="geometry">
            <mxRectangle width="30" height="30" as="alternateBounds" />
          </mxGeometry>
        </mxCell>
        <mxCell id="yaAyxSlWEsneB4Hl2WkM-111" value="FK_Produtos" style="shape=partialRectangle;connectable=0;fillColor=none;top=0;left=0;bottom=0;right=0;align=left;spacingLeft=6;overflow=hidden;whiteSpace=wrap;html=1;fontSize=16;shadow=0;snapToPoint=0;fixDash=0;metaEdit=0;backgroundOutline=0;enumerate=0;comic=0;deletable=0;" parent="yaAyxSlWEsneB4Hl2WkM-109" vertex="1">
          <mxGeometry x="30" width="150" height="30" as="geometry">
            <mxRectangle width="150" height="30" as="alternateBounds" />
          </mxGeometry>
        </mxCell>
        <mxCell id="yaAyxSlWEsneB4Hl2WkM-148" value="INTEGER" style="shape=partialRectangle;connectable=0;fillColor=none;top=0;left=0;bottom=0;right=0;align=left;spacingLeft=6;overflow=hidden;whiteSpace=wrap;html=1;fontSize=16;shadow=0;snapToPoint=0;fixDash=0;metaEdit=0;backgroundOutline=0;enumerate=0;comic=0;deletable=0;" parent="yaAyxSlWEsneB4Hl2WkM-109" vertex="1">
          <mxGeometry x="180" width="150" height="30" as="geometry">
            <mxRectangle width="150" height="30" as="alternateBounds" />
          </mxGeometry>
        </mxCell>
        <mxCell id="yaAyxSlWEsneB4Hl2WkM-108" style="edgeStyle=none;curved=1;rounded=0;orthogonalLoop=1;jettySize=auto;html=1;fontSize=12;startSize=8;endSize=8;shadow=0;snapToPoint=0;fixDash=0;metaEdit=0;backgroundOutline=0;enumerate=0;comic=0;deletable=0;" parent="1" source="yaAyxSlWEsneB4Hl2WkM-40" target="yaAyxSlWEsneB4Hl2WkM-27" edge="1">
          <mxGeometry relative="1" as="geometry" />
        </mxCell>
      </root>
    </mxGraphModel>
  </diagram>
</mxfile>
